<?xml version="1.0" encoding="UTF-8" standalone="no"?>
<!-- Created with Inkscape (http://www.inkscape.org/) -->

<svg
   width="234.64273mm"
   height="67.73333mm"
   viewBox="0 0 886.83868 256"
   version="1.1"
   id="svg1"
   xml:space="preserve"
   xmlns="http://www.w3.org/2000/svg"
   xmlns:svg="http://www.w3.org/2000/svg"><defs
     id="defs1" /><g
     id="layer1"
     transform="translate(-29.240772,-35.73636)"><path
       d="m 680.95345,265.91889 q -23.53936,0 -41.57602,-5.80842 -18.03665,-6.11412 -30.5706,-18.03665 -12.22824,-11.92253 -18.64806,-29.65348 -6.11412,-18.03665 -6.11412,-41.57602 V 72.7127 q 0,-14.062476 7.33694,-21.093714 7.33695,-7.336944 20.78801,-7.336944 13.75677,0 20.78801,7.336944 7.33694,7.031238 7.33694,21.093714 v 98.74304 q 0,23.53936 10.39401,35.46189 10.394,11.92253 30.26489,11.92253 19.56518,0 29.95919,-11.92253 10.394,-11.92253 10.394,-35.46189 V 72.7127 q 0,-14.062476 7.03124,-21.093714 7.33694,-7.336944 20.78801,-7.336944 13.45106,0 20.4823,7.336944 7.03124,7.031238 7.03124,21.093714 v 98.13162 q 0,31.48772 -11.00542,52.88714 -10.69971,21.09371 -32.09913,31.79342 -21.39942,10.39401 -52.58143,10.39401 z"
       id="text4"
       style="font-size:305.706px;font-family:Nunito;-inkscape-font-specification:'Nunito, @wght=900';font-variation-settings:'wght' 900;fill:#39393a;stroke-width:25.4755"
       transform="scale(0.92303213,1.0833859)"
       aria-label="U" /><path
       d="m 893.11317,265.30748 q -13.45106,0 -20.78801,-7.33695 -7.33694,-7.64265 -7.33694,-21.09371 V 92.889295 h -47.99584 q -11.31112,0 -17.42524,-5.808414 -5.80842,-6.114119 -5.80842,-17.119535 0,-11.311122 5.80842,-17.119536 6.11412,-5.808414 17.42524,-5.808414 h 152.24158 q 11.31113,0 17.11954,5.808414 6.11412,5.808414 6.11412,17.119536 0,11.005416 -6.11412,17.119535 -5.80841,5.808414 -17.11954,5.808414 H 921.23812 V 236.87682 q 0,13.45106 -7.03123,21.09371 -7.03124,7.33695 -21.09372,7.33695 z"
       id="text3"
       style="font-size:305.706px;font-family:Nunito;-inkscape-font-specification:'Nunito, @wght=900';font-variation-settings:'wght' 900;fill:#39393a;stroke-width:25.4755"
       transform="scale(0.92303213,1.0833859)"
       aria-label="T" /><path
       d="m 321.51433,163.73636 a 128,128 0 1 1 256,0 128,128 0 1 1 -256,0 z m 94.15,-54.45 c -3.8,2.1 -6.15,6.15 -6.15,10.45 v 87.99999 c 0,4.35 2.35,8.35 6.15,10.45 3.8,2.1 8.4,2.05 12.15,-0.25 l 72,-43.99999 c 3.55,-2.2 5.75,-6.05 5.75,-10.25 0,-4.2 -2.2,-8.05 -5.75,-10.25 l -72,-44 c -3.7,-2.25 -8.35,-2.35 -12.15,-0.25 z"
       id="path1"
       style="fill:#ff8552;fill-opacity:1;stroke-width:0.5" /><path
       d="m 118.08466,268.55591 q -12.22824,0 -25.679308,-1.83423 -13.145358,-1.52853 -25.067892,-4.8913 -11.922533,-3.36277 -21.399419,-7.94836 -8.254062,-3.97417 -11.616828,-10.394 -3.362766,-6.72553 -2.445648,-14.06248 0.917118,-7.33694 5.197002,-12.83965 4.279884,-5.80841 11.311122,-7.64265 7.031238,-2.13994 15.896711,1.83424 11.616828,5.50271 26.290716,8.55977 14.673884,3.05706 27.513544,3.05706 20.17659,0 28.12495,-5.19701 8.25406,-5.5027 8.25406,-13.45106 0,-7.03124 -5.80842,-11.31112 -5.5027,-4.27988 -19.87088,-7.33694 l -35.767606,-7.64265 q -29.347776,-6.11412 -43.715957,-21.39942 -14.368182,-15.2853 -14.368182,-39.43608 0,-15.89671 6.419826,-28.736361 6.725532,-13.145357 18.648066,-22.316537 12.228239,-9.17118 28.736363,-14.062476 16.81383,-5.197002 37.29613,-5.197002 15.89671,0 32.09913,3.668472 16.50812,3.362766 28.43066,10.394004 7.03124,3.668472 10.0883,10.088298 3.05706,6.419826 2.44564,13.451064 -0.61141,6.725531 -4.89129,11.922533 -3.97418,5.197005 -11.00542,7.031235 -6.72553,1.52853 -16.20242,-2.44564 -8.86547,-3.974183 -20.17659,-5.808419 -11.00542,-2.139942 -21.39942,-2.139942 -11.31112,0 -19.25948,2.751354 -7.948354,2.445648 -12.228238,7.336947 -3.974178,4.89129 -3.974178,11.31112 0,6.41982 5.197002,11.00541 5.502704,4.27989 19.870894,7.33695 l 35.46189,7.64265 q 29.65348,6.41982 44.32737,21.09371 14.67389,14.67389 14.67389,38.21325 0,15.89671 -6.41983,28.73636 -6.41982,12.83966 -18.34236,22.01084 -11.92253,8.86547 -28.73636,13.75677 -16.81383,4.89129 -37.90754,4.89129 z"
       id="text6"
       style="font-size:305.706px;font-family:Nunito;-inkscape-font-specification:'Nunito, @wght=900';font-variation-settings:'wght' 900;fill:#39393a;stroke-width:25.4755"
       transform="scale(0.92303213,1.0833859)"
       aria-label="S" /><path
       d="m 345.83592,268.55591 q -35.7676,0 -61.4469,-13.75677 -25.6793,-13.75677 -39.43607,-38.82466 -13.45107,-25.06789 -13.45107,-58.69555 0,-25.06789 7.64265,-45.55019 7.94836,-20.482305 22.62225,-35.156192 14.97959,-14.673888 36.0733,-22.316538 21.39942,-7.948356 47.99584,-7.948356 14.06248,0 29.04207,3.362766 15.2853,3.05706 26.90213,9.476886 8.55977,4.58559 11.92254,11.616828 3.36276,7.031238 2.13994,14.368181 -0.91712,7.336944 -5.197,13.145358 -4.27989,5.808417 -11.00542,7.948357 -6.72553,1.83424 -14.67389,-2.13994 -9.17118,-4.279887 -18.34236,-6.419829 -8.86547,-2.445648 -18.64806,-2.445648 -18.95377,0 -31.79343,7.336947 -12.53394,7.03123 -18.95377,20.788 -6.41982,13.75677 -6.41982,33.93337 0,20.1766 6.41982,34.23907 6.41983,13.75677 18.95377,21.09371 12.83966,7.03124 31.79343,7.03124 7.94835,0 17.11953,-1.83423 9.17118,-2.13995 18.03666,-6.41983 9.17118,-3.97418 16.20241,-2.13994 7.33695,1.83423 11.61683,7.33694 4.58559,5.50271 5.80842,12.83965 1.22282,7.03124 -2.13995,14.06248 -3.05706,7.03124 -11.00541,11.31112 -10.69971,6.41983 -26.59642,10.0883 -15.59101,3.66847 -31.18202,3.66847 z"
       id="text5"
       style="font-size:305.706px;font-family:Nunito;-inkscape-font-specification:'Nunito, @wght=900';font-variation-settings:'wght' 900;fill:#39393a;stroke-width:25.4755"
       transform="scale(0.92303213,1.0833859)"
       aria-label="C" /></g></svg>
